<mxfile host="app.diagrams.net" modified="2023-09-26T03:18:11.816Z" agent="Mozilla/5.0 (Windows NT 10.0; Win64; x64) AppleWebKit/537.36 (KHTML, like Gecko) Chrome/116.0.0.0 Safari/537.36" etag="BqgRl2pixgk1CYUh0rAP" version="21.8.2" type="device">
  <diagram id="C5RBs43oDa-KdzZeNtuy" name="Page-1">
    <mxGraphModel dx="4654" dy="735" grid="1" gridSize="10" guides="1" tooltips="1" connect="1" arrows="1" fold="1" page="1" pageScale="1" pageWidth="3300" pageHeight="4681" math="0" shadow="0">
      <root>
        <mxCell id="WIyWlLk6GJQsqaUBKTNV-0" />
        <mxCell id="WIyWlLk6GJQsqaUBKTNV-1" parent="WIyWlLk6GJQsqaUBKTNV-0" />
        <mxCell id="jy5TOX9gL-A7DgwTzjGL-0" value="Vehículo" style="swimlane;fontStyle=2;align=center;verticalAlign=top;childLayout=stackLayout;horizontal=1;startSize=26;horizontalStack=0;resizeParent=1;resizeLast=0;collapsible=1;marginBottom=0;rounded=0;shadow=0;strokeWidth=1;" parent="WIyWlLk6GJQsqaUBKTNV-1" vertex="1">
          <mxGeometry x="-660" y="500" width="160" height="190" as="geometry">
            <mxRectangle x="230" y="140" width="160" height="26" as="alternateBounds" />
          </mxGeometry>
        </mxCell>
        <mxCell id="jy5TOX9gL-A7DgwTzjGL-1" value="-marca: String" style="text;align=left;verticalAlign=top;spacingLeft=4;spacingRight=4;overflow=hidden;rotatable=0;points=[[0,0.5],[1,0.5]];portConstraint=eastwest;" parent="jy5TOX9gL-A7DgwTzjGL-0" vertex="1">
          <mxGeometry y="26" width="160" height="26" as="geometry" />
        </mxCell>
        <mxCell id="jy5TOX9gL-A7DgwTzjGL-2" value="-placa: String" style="text;align=left;verticalAlign=top;spacingLeft=4;spacingRight=4;overflow=hidden;rotatable=0;points=[[0,0.5],[1,0.5]];portConstraint=eastwest;rounded=0;shadow=0;html=0;" parent="jy5TOX9gL-A7DgwTzjGL-0" vertex="1">
          <mxGeometry y="52" width="160" height="26" as="geometry" />
        </mxCell>
        <mxCell id="jy5TOX9gL-A7DgwTzjGL-5" value="-color: String" style="text;align=left;verticalAlign=top;spacingLeft=4;spacingRight=4;overflow=hidden;rotatable=0;points=[[0,0.5],[1,0.5]];portConstraint=eastwest;" parent="jy5TOX9gL-A7DgwTzjGL-0" vertex="1">
          <mxGeometry y="78" width="160" height="26" as="geometry" />
        </mxCell>
        <mxCell id="jy5TOX9gL-A7DgwTzjGL-6" value="-estado: String " style="text;align=left;verticalAlign=top;spacingLeft=4;spacingRight=4;overflow=hidden;rotatable=0;points=[[0,0.5],[1,0.5]];portConstraint=eastwest;rounded=0;shadow=0;html=0;" parent="jy5TOX9gL-A7DgwTzjGL-0" vertex="1">
          <mxGeometry y="104" width="160" height="26" as="geometry" />
        </mxCell>
        <mxCell id="jy5TOX9gL-A7DgwTzjGL-14" value="-fechaDisponibilidad: String " style="text;align=left;verticalAlign=top;spacingLeft=4;spacingRight=4;overflow=hidden;rotatable=0;points=[[0,0.5],[1,0.5]];portConstraint=eastwest;rounded=0;shadow=0;html=0;" parent="jy5TOX9gL-A7DgwTzjGL-0" vertex="1">
          <mxGeometry y="130" width="160" height="26" as="geometry" />
        </mxCell>
        <mxCell id="jy5TOX9gL-A7DgwTzjGL-4" value="" style="line;html=1;strokeWidth=1;align=left;verticalAlign=middle;spacingTop=-1;spacingLeft=3;spacingRight=3;rotatable=0;labelPosition=right;points=[];portConstraint=eastwest;" parent="jy5TOX9gL-A7DgwTzjGL-0" vertex="1">
          <mxGeometry y="156" width="160" height="8" as="geometry" />
        </mxCell>
        <mxCell id="jy5TOX9gL-A7DgwTzjGL-7" value="Categoría" style="swimlane;fontStyle=2;align=center;verticalAlign=top;childLayout=stackLayout;horizontal=1;startSize=26;horizontalStack=0;resizeParent=1;resizeLast=0;collapsible=1;marginBottom=0;rounded=0;shadow=0;strokeWidth=1;" parent="WIyWlLk6GJQsqaUBKTNV-1" vertex="1">
          <mxGeometry x="-620" y="320" width="160" height="70" as="geometry">
            <mxRectangle x="230" y="140" width="160" height="26" as="alternateBounds" />
          </mxGeometry>
        </mxCell>
        <mxCell id="jy5TOX9gL-A7DgwTzjGL-8" value="-nombre: String" style="text;align=left;verticalAlign=top;spacingLeft=4;spacingRight=4;overflow=hidden;rotatable=0;points=[[0,0.5],[1,0.5]];portConstraint=eastwest;" parent="jy5TOX9gL-A7DgwTzjGL-7" vertex="1">
          <mxGeometry y="26" width="160" height="26" as="geometry" />
        </mxCell>
        <mxCell id="jy5TOX9gL-A7DgwTzjGL-13" value="" style="line;html=1;strokeWidth=1;align=left;verticalAlign=middle;spacingTop=-1;spacingLeft=3;spacingRight=3;rotatable=0;labelPosition=right;points=[];portConstraint=eastwest;" parent="jy5TOX9gL-A7DgwTzjGL-7" vertex="1">
          <mxGeometry y="52" width="160" height="8" as="geometry" />
        </mxCell>
        <mxCell id="jy5TOX9gL-A7DgwTzjGL-15" value="vehículos" style="endArrow=block;endFill=1;html=1;edgeStyle=orthogonalEdgeStyle;align=left;verticalAlign=top;rounded=0;exitX=0.5;exitY=1;exitDx=0;exitDy=0;" parent="WIyWlLk6GJQsqaUBKTNV-1" source="jy5TOX9gL-A7DgwTzjGL-7" edge="1">
          <mxGeometry x="-0.8" relative="1" as="geometry">
            <mxPoint x="-710" y="450" as="sourcePoint" />
            <mxPoint x="-540" y="500" as="targetPoint" />
            <mxPoint as="offset" />
            <Array as="points">
              <mxPoint x="-540" y="500" />
            </Array>
          </mxGeometry>
        </mxCell>
        <mxCell id="jy5TOX9gL-A7DgwTzjGL-16" value="*" style="edgeLabel;resizable=0;html=1;align=left;verticalAlign=bottom;" parent="jy5TOX9gL-A7DgwTzjGL-15" connectable="0" vertex="1">
          <mxGeometry x="-1" relative="1" as="geometry">
            <mxPoint x="-20" y="22" as="offset" />
          </mxGeometry>
        </mxCell>
        <mxCell id="jy5TOX9gL-A7DgwTzjGL-17" value="categoría" style="endArrow=block;endFill=1;html=1;edgeStyle=orthogonalEdgeStyle;align=left;verticalAlign=top;rounded=0;entryX=0.25;entryY=1;entryDx=0;entryDy=0;exitX=0.25;exitY=0;exitDx=0;exitDy=0;" parent="WIyWlLk6GJQsqaUBKTNV-1" source="jy5TOX9gL-A7DgwTzjGL-0" target="jy5TOX9gL-A7DgwTzjGL-7" edge="1">
          <mxGeometry x="-1" y="32" relative="1" as="geometry">
            <mxPoint x="-580" y="470" as="sourcePoint" />
            <mxPoint x="-590" y="450" as="targetPoint" />
            <mxPoint x="-10" y="2" as="offset" />
            <Array as="points">
              <mxPoint x="-580" y="500" />
            </Array>
          </mxGeometry>
        </mxCell>
        <mxCell id="jy5TOX9gL-A7DgwTzjGL-18" value="1" style="edgeLabel;resizable=0;html=1;align=left;verticalAlign=bottom;" parent="jy5TOX9gL-A7DgwTzjGL-17" connectable="0" vertex="1">
          <mxGeometry x="-1" relative="1" as="geometry">
            <mxPoint x="20" y="-25" as="offset" />
          </mxGeometry>
        </mxCell>
        <mxCell id="jy5TOX9gL-A7DgwTzjGL-25" value="Sede" style="swimlane;fontStyle=2;align=center;verticalAlign=top;childLayout=stackLayout;horizontal=1;startSize=26;horizontalStack=0;resizeParent=1;resizeLast=0;collapsible=1;marginBottom=0;rounded=0;shadow=0;strokeWidth=1;" parent="WIyWlLk6GJQsqaUBKTNV-1" vertex="1">
          <mxGeometry x="-425" y="410" width="160" height="120" as="geometry">
            <mxRectangle x="230" y="140" width="160" height="26" as="alternateBounds" />
          </mxGeometry>
        </mxCell>
        <mxCell id="jy5TOX9gL-A7DgwTzjGL-26" value="-nombre: String" style="text;align=left;verticalAlign=top;spacingLeft=4;spacingRight=4;overflow=hidden;rotatable=0;points=[[0,0.5],[1,0.5]];portConstraint=eastwest;" parent="jy5TOX9gL-A7DgwTzjGL-25" vertex="1">
          <mxGeometry y="26" width="160" height="26" as="geometry" />
        </mxCell>
        <mxCell id="jy5TOX9gL-A7DgwTzjGL-27" value="-ubicacion: String" style="text;align=left;verticalAlign=top;spacingLeft=4;spacingRight=4;overflow=hidden;rotatable=0;points=[[0,0.5],[1,0.5]];portConstraint=eastwest;rounded=0;shadow=0;html=0;" parent="jy5TOX9gL-A7DgwTzjGL-25" vertex="1">
          <mxGeometry y="52" width="160" height="26" as="geometry" />
        </mxCell>
        <mxCell id="jy5TOX9gL-A7DgwTzjGL-28" value="-horariosAtención: String" style="text;align=left;verticalAlign=top;spacingLeft=4;spacingRight=4;overflow=hidden;rotatable=0;points=[[0,0.5],[1,0.5]];portConstraint=eastwest;" parent="jy5TOX9gL-A7DgwTzjGL-25" vertex="1">
          <mxGeometry y="78" width="160" height="26" as="geometry" />
        </mxCell>
        <mxCell id="jy5TOX9gL-A7DgwTzjGL-32" value="" style="line;html=1;strokeWidth=1;align=left;verticalAlign=middle;spacingTop=-1;spacingLeft=3;spacingRight=3;rotatable=0;labelPosition=right;points=[];portConstraint=eastwest;" parent="jy5TOX9gL-A7DgwTzjGL-25" vertex="1">
          <mxGeometry y="104" width="160" height="8" as="geometry" />
        </mxCell>
        <mxCell id="jy5TOX9gL-A7DgwTzjGL-33" value="sede" style="endArrow=block;endFill=1;html=1;edgeStyle=orthogonalEdgeStyle;align=left;verticalAlign=top;rounded=0;exitX=1;exitY=0.5;exitDx=0;exitDy=0;entryX=0.5;entryY=1;entryDx=0;entryDy=0;" parent="WIyWlLk6GJQsqaUBKTNV-1" source="jy5TOX9gL-A7DgwTzjGL-5" target="jy5TOX9gL-A7DgwTzjGL-25" edge="1">
          <mxGeometry x="-1" relative="1" as="geometry">
            <mxPoint x="-440" y="584" as="sourcePoint" />
            <mxPoint x="-280" y="584" as="targetPoint" />
          </mxGeometry>
        </mxCell>
        <mxCell id="jy5TOX9gL-A7DgwTzjGL-34" value="1" style="edgeLabel;resizable=0;html=1;align=left;verticalAlign=bottom;" parent="jy5TOX9gL-A7DgwTzjGL-33" connectable="0" vertex="1">
          <mxGeometry x="-1" relative="1" as="geometry">
            <mxPoint x="30" y="19" as="offset" />
          </mxGeometry>
        </mxCell>
        <mxCell id="jy5TOX9gL-A7DgwTzjGL-35" value="vehículos" style="endArrow=block;endFill=1;html=1;edgeStyle=orthogonalEdgeStyle;align=left;verticalAlign=top;rounded=0;entryX=1;entryY=0.5;entryDx=0;entryDy=0;exitX=0.25;exitY=1;exitDx=0;exitDy=0;" parent="WIyWlLk6GJQsqaUBKTNV-1" source="jy5TOX9gL-A7DgwTzjGL-25" target="jy5TOX9gL-A7DgwTzjGL-2" edge="1">
          <mxGeometry x="-0.8915" y="-50" relative="1" as="geometry">
            <mxPoint x="-330" y="498" as="sourcePoint" />
            <mxPoint x="-330" y="598" as="targetPoint" />
            <mxPoint as="offset" />
          </mxGeometry>
        </mxCell>
        <mxCell id="jy5TOX9gL-A7DgwTzjGL-36" value="*" style="edgeLabel;resizable=0;html=1;align=left;verticalAlign=bottom;" parent="jy5TOX9gL-A7DgwTzjGL-35" connectable="0" vertex="1">
          <mxGeometry x="-1" relative="1" as="geometry">
            <mxPoint x="-20" y="22" as="offset" />
          </mxGeometry>
        </mxCell>
        <mxCell id="jy5TOX9gL-A7DgwTzjGL-37" value="Cliente" style="swimlane;fontStyle=2;align=center;verticalAlign=top;childLayout=stackLayout;horizontal=1;startSize=26;horizontalStack=0;resizeParent=1;resizeLast=0;collapsible=1;marginBottom=0;rounded=0;shadow=0;strokeWidth=1;" parent="WIyWlLk6GJQsqaUBKTNV-1" vertex="1">
          <mxGeometry x="50" y="360" width="190" height="190" as="geometry">
            <mxRectangle x="230" y="140" width="160" height="26" as="alternateBounds" />
          </mxGeometry>
        </mxCell>
        <mxCell id="jy5TOX9gL-A7DgwTzjGL-38" value="-nombre: String" style="text;align=left;verticalAlign=top;spacingLeft=4;spacingRight=4;overflow=hidden;rotatable=0;points=[[0,0.5],[1,0.5]];portConstraint=eastwest;" parent="jy5TOX9gL-A7DgwTzjGL-37" vertex="1">
          <mxGeometry y="26" width="190" height="26" as="geometry" />
        </mxCell>
        <mxCell id="jy5TOX9gL-A7DgwTzjGL-39" value="-datosContacto: String" style="text;align=left;verticalAlign=top;spacingLeft=4;spacingRight=4;overflow=hidden;rotatable=0;points=[[0,0.5],[1,0.5]];portConstraint=eastwest;rounded=0;shadow=0;html=0;" parent="jy5TOX9gL-A7DgwTzjGL-37" vertex="1">
          <mxGeometry y="52" width="190" height="26" as="geometry" />
        </mxCell>
        <mxCell id="jy5TOX9gL-A7DgwTzjGL-40" value="-fechaNacimiento: Date" style="text;align=left;verticalAlign=top;spacingLeft=4;spacingRight=4;overflow=hidden;rotatable=0;points=[[0,0.5],[1,0.5]];portConstraint=eastwest;" parent="jy5TOX9gL-A7DgwTzjGL-37" vertex="1">
          <mxGeometry y="78" width="190" height="26" as="geometry" />
        </mxCell>
        <mxCell id="DRnetqcQ-tTifSEXMpZS-0" value="-nacionalidad: String" style="text;align=left;verticalAlign=top;spacingLeft=4;spacingRight=4;overflow=hidden;rotatable=0;points=[[0,0.5],[1,0.5]];portConstraint=eastwest;" parent="jy5TOX9gL-A7DgwTzjGL-37" vertex="1">
          <mxGeometry y="104" width="190" height="26" as="geometry" />
        </mxCell>
        <mxCell id="DRnetqcQ-tTifSEXMpZS-1" value="-documentoIdentidad: Image" style="text;align=left;verticalAlign=top;spacingLeft=4;spacingRight=4;overflow=hidden;rotatable=0;points=[[0,0.5],[1,0.5]];portConstraint=eastwest;" parent="jy5TOX9gL-A7DgwTzjGL-37" vertex="1">
          <mxGeometry y="130" width="190" height="26" as="geometry" />
        </mxCell>
        <mxCell id="DRnetqcQ-tTifSEXMpZS-2" value="-Activo: Boolean&#xa;" style="text;align=left;verticalAlign=top;spacingLeft=4;spacingRight=4;overflow=hidden;rotatable=0;points=[[0,0.5],[1,0.5]];portConstraint=eastwest;" parent="jy5TOX9gL-A7DgwTzjGL-37" vertex="1">
          <mxGeometry y="156" width="190" height="26" as="geometry" />
        </mxCell>
        <mxCell id="jy5TOX9gL-A7DgwTzjGL-41" value="" style="line;html=1;strokeWidth=1;align=left;verticalAlign=middle;spacingTop=-1;spacingLeft=3;spacingRight=3;rotatable=0;labelPosition=right;points=[];portConstraint=eastwest;" parent="jy5TOX9gL-A7DgwTzjGL-37" vertex="1">
          <mxGeometry y="182" width="190" height="8" as="geometry" />
        </mxCell>
        <mxCell id="DRnetqcQ-tTifSEXMpZS-3" value="Licencia" style="swimlane;fontStyle=2;align=center;verticalAlign=top;childLayout=stackLayout;horizontal=1;startSize=26;horizontalStack=0;resizeParent=1;resizeLast=0;collapsible=1;marginBottom=0;rounded=0;shadow=0;strokeWidth=1;" parent="WIyWlLk6GJQsqaUBKTNV-1" vertex="1">
          <mxGeometry x="-200" y="620" width="190" height="140" as="geometry">
            <mxRectangle x="230" y="140" width="160" height="26" as="alternateBounds" />
          </mxGeometry>
        </mxCell>
        <mxCell id="DRnetqcQ-tTifSEXMpZS-4" value="-número: String" style="text;align=left;verticalAlign=top;spacingLeft=4;spacingRight=4;overflow=hidden;rotatable=0;points=[[0,0.5],[1,0.5]];portConstraint=eastwest;" parent="DRnetqcQ-tTifSEXMpZS-3" vertex="1">
          <mxGeometry y="26" width="190" height="26" as="geometry" />
        </mxCell>
        <mxCell id="DRnetqcQ-tTifSEXMpZS-5" value="-paisExpedicion: String" style="text;align=left;verticalAlign=top;spacingLeft=4;spacingRight=4;overflow=hidden;rotatable=0;points=[[0,0.5],[1,0.5]];portConstraint=eastwest;rounded=0;shadow=0;html=0;" parent="DRnetqcQ-tTifSEXMpZS-3" vertex="1">
          <mxGeometry y="52" width="190" height="26" as="geometry" />
        </mxCell>
        <mxCell id="DRnetqcQ-tTifSEXMpZS-6" value="-fechaVencimiento: Date" style="text;align=left;verticalAlign=top;spacingLeft=4;spacingRight=4;overflow=hidden;rotatable=0;points=[[0,0.5],[1,0.5]];portConstraint=eastwest;" parent="DRnetqcQ-tTifSEXMpZS-3" vertex="1">
          <mxGeometry y="78" width="190" height="26" as="geometry" />
        </mxCell>
        <mxCell id="DRnetqcQ-tTifSEXMpZS-7" value="-Imagen: Image" style="text;align=left;verticalAlign=top;spacingLeft=4;spacingRight=4;overflow=hidden;rotatable=0;points=[[0,0.5],[1,0.5]];portConstraint=eastwest;" parent="DRnetqcQ-tTifSEXMpZS-3" vertex="1">
          <mxGeometry y="104" width="190" height="26" as="geometry" />
        </mxCell>
        <mxCell id="DRnetqcQ-tTifSEXMpZS-10" value="" style="line;html=1;strokeWidth=1;align=left;verticalAlign=middle;spacingTop=-1;spacingLeft=3;spacingRight=3;rotatable=0;labelPosition=right;points=[];portConstraint=eastwest;" parent="DRnetqcQ-tTifSEXMpZS-3" vertex="1">
          <mxGeometry y="130" width="190" height="8" as="geometry" />
        </mxCell>
        <mxCell id="DRnetqcQ-tTifSEXMpZS-11" value="Medio DePago" style="swimlane;fontStyle=2;align=center;verticalAlign=top;childLayout=stackLayout;horizontal=1;startSize=26;horizontalStack=0;resizeParent=1;resizeLast=0;collapsible=1;marginBottom=0;rounded=0;shadow=0;strokeWidth=1;" parent="WIyWlLk6GJQsqaUBKTNV-1" vertex="1">
          <mxGeometry x="10" y="610" width="190" height="140" as="geometry">
            <mxRectangle x="230" y="140" width="160" height="26" as="alternateBounds" />
          </mxGeometry>
        </mxCell>
        <mxCell id="DRnetqcQ-tTifSEXMpZS-12" value="-número: String" style="text;align=left;verticalAlign=top;spacingLeft=4;spacingRight=4;overflow=hidden;rotatable=0;points=[[0,0.5],[1,0.5]];portConstraint=eastwest;" parent="DRnetqcQ-tTifSEXMpZS-11" vertex="1">
          <mxGeometry y="26" width="190" height="26" as="geometry" />
        </mxCell>
        <mxCell id="DRnetqcQ-tTifSEXMpZS-13" value="-coutas: String" style="text;align=left;verticalAlign=top;spacingLeft=4;spacingRight=4;overflow=hidden;rotatable=0;points=[[0,0.5],[1,0.5]];portConstraint=eastwest;rounded=0;shadow=0;html=0;" parent="DRnetqcQ-tTifSEXMpZS-11" vertex="1">
          <mxGeometry y="52" width="190" height="26" as="geometry" />
        </mxCell>
        <mxCell id="DRnetqcQ-tTifSEXMpZS-14" value="-fechaVencimiento: Date" style="text;align=left;verticalAlign=top;spacingLeft=4;spacingRight=4;overflow=hidden;rotatable=0;points=[[0,0.5],[1,0.5]];portConstraint=eastwest;" parent="DRnetqcQ-tTifSEXMpZS-11" vertex="1">
          <mxGeometry y="78" width="190" height="26" as="geometry" />
        </mxCell>
        <mxCell id="DRnetqcQ-tTifSEXMpZS-15" value="-Bloqueada: boolean" style="text;align=left;verticalAlign=top;spacingLeft=4;spacingRight=4;overflow=hidden;rotatable=0;points=[[0,0.5],[1,0.5]];portConstraint=eastwest;" parent="DRnetqcQ-tTifSEXMpZS-11" vertex="1">
          <mxGeometry y="104" width="190" height="26" as="geometry" />
        </mxCell>
        <mxCell id="DRnetqcQ-tTifSEXMpZS-16" value="" style="line;html=1;strokeWidth=1;align=left;verticalAlign=middle;spacingTop=-1;spacingLeft=3;spacingRight=3;rotatable=0;labelPosition=right;points=[];portConstraint=eastwest;" parent="DRnetqcQ-tTifSEXMpZS-11" vertex="1">
          <mxGeometry y="130" width="190" height="8" as="geometry" />
        </mxCell>
        <mxCell id="DRnetqcQ-tTifSEXMpZS-17" value="licencia" style="endArrow=block;endFill=1;html=1;edgeStyle=orthogonalEdgeStyle;align=left;verticalAlign=top;rounded=0;" parent="WIyWlLk6GJQsqaUBKTNV-1" edge="1">
          <mxGeometry x="-0.5649" y="-27" relative="1" as="geometry">
            <mxPoint x="50" y="477" as="sourcePoint" />
            <mxPoint x="-110" y="620" as="targetPoint" />
            <mxPoint as="offset" />
            <Array as="points">
              <mxPoint x="-110" y="478" />
              <mxPoint x="-110" y="620" />
              <mxPoint x="-115" y="620" />
            </Array>
          </mxGeometry>
        </mxCell>
        <mxCell id="DRnetqcQ-tTifSEXMpZS-18" value="1" style="edgeLabel;resizable=0;html=1;align=left;verticalAlign=bottom;" parent="DRnetqcQ-tTifSEXMpZS-17" connectable="0" vertex="1">
          <mxGeometry x="-1" relative="1" as="geometry">
            <mxPoint x="-20" y="-3" as="offset" />
          </mxGeometry>
        </mxCell>
        <mxCell id="DRnetqcQ-tTifSEXMpZS-19" value="medios de pago" style="endArrow=block;endFill=1;html=1;edgeStyle=orthogonalEdgeStyle;align=left;verticalAlign=top;rounded=0;entryX=0.5;entryY=0;entryDx=0;entryDy=0;" parent="WIyWlLk6GJQsqaUBKTNV-1" target="DRnetqcQ-tTifSEXMpZS-11" edge="1">
          <mxGeometry x="-0.5649" y="-27" relative="1" as="geometry">
            <mxPoint x="155" y="550" as="sourcePoint" />
            <mxPoint x="-80" y="693" as="targetPoint" />
            <mxPoint as="offset" />
          </mxGeometry>
        </mxCell>
        <mxCell id="DRnetqcQ-tTifSEXMpZS-20" value="1*" style="edgeLabel;resizable=0;html=1;align=left;verticalAlign=bottom;" parent="DRnetqcQ-tTifSEXMpZS-19" connectable="0" vertex="1">
          <mxGeometry x="-1" relative="1" as="geometry">
            <mxPoint x="15" y="35" as="offset" />
          </mxGeometry>
        </mxCell>
        <mxCell id="DRnetqcQ-tTifSEXMpZS-21" value="Tarifa" style="swimlane;fontStyle=2;align=center;verticalAlign=top;childLayout=stackLayout;horizontal=1;startSize=26;horizontalStack=0;resizeParent=1;resizeLast=0;collapsible=1;marginBottom=0;rounded=0;shadow=0;strokeWidth=1;" parent="WIyWlLk6GJQsqaUBKTNV-1" vertex="1">
          <mxGeometry x="-830" y="470" width="160" height="114" as="geometry">
            <mxRectangle x="230" y="140" width="160" height="26" as="alternateBounds" />
          </mxGeometry>
        </mxCell>
        <mxCell id="DRnetqcQ-tTifSEXMpZS-22" value="-precio: int" style="text;align=left;verticalAlign=top;spacingLeft=4;spacingRight=4;overflow=hidden;rotatable=0;points=[[0,0.5],[1,0.5]];portConstraint=eastwest;" parent="DRnetqcQ-tTifSEXMpZS-21" vertex="1">
          <mxGeometry y="26" width="160" height="26" as="geometry" />
        </mxCell>
        <mxCell id="nKCrA-lN9NPPw2SbhEwQ-1" value="-fechaVálido: Date" style="text;align=left;verticalAlign=top;spacingLeft=4;spacingRight=4;overflow=hidden;rotatable=0;points=[[0,0.5],[1,0.5]];portConstraint=eastwest;" parent="DRnetqcQ-tTifSEXMpZS-21" vertex="1">
          <mxGeometry y="52" width="160" height="28" as="geometry" />
        </mxCell>
        <mxCell id="DRnetqcQ-tTifSEXMpZS-24" value="-temporada: String" style="text;align=left;verticalAlign=top;spacingLeft=4;spacingRight=4;overflow=hidden;rotatable=0;points=[[0,0.5],[1,0.5]];portConstraint=eastwest;" parent="DRnetqcQ-tTifSEXMpZS-21" vertex="1">
          <mxGeometry y="80" width="160" height="26" as="geometry" />
        </mxCell>
        <mxCell id="DRnetqcQ-tTifSEXMpZS-23" value="" style="line;html=1;strokeWidth=1;align=left;verticalAlign=middle;spacingTop=-1;spacingLeft=3;spacingRight=3;rotatable=0;labelPosition=right;points=[];portConstraint=eastwest;" parent="DRnetqcQ-tTifSEXMpZS-21" vertex="1">
          <mxGeometry y="106" width="160" height="8" as="geometry" />
        </mxCell>
        <mxCell id="XEJke8gN8GgJqABwDWAg-2" value="Factura&#xa;" style="swimlane;fontStyle=2;align=center;verticalAlign=top;childLayout=stackLayout;horizontal=1;startSize=26;horizontalStack=0;resizeParent=1;resizeLast=0;collapsible=1;marginBottom=0;rounded=0;shadow=0;strokeWidth=1;" parent="WIyWlLk6GJQsqaUBKTNV-1" vertex="1">
          <mxGeometry x="330" y="270" width="190" height="150" as="geometry">
            <mxRectangle x="230" y="140" width="160" height="26" as="alternateBounds" />
          </mxGeometry>
        </mxCell>
        <mxCell id="XEJke8gN8GgJqABwDWAg-3" value="-total: int" style="text;align=left;verticalAlign=top;spacingLeft=4;spacingRight=4;overflow=hidden;rotatable=0;points=[[0,0.5],[1,0.5]];portConstraint=eastwest;" parent="XEJke8gN8GgJqABwDWAg-2" vertex="1">
          <mxGeometry y="26" width="190" height="26" as="geometry" />
        </mxCell>
        <mxCell id="XEJke8gN8GgJqABwDWAg-5" value="- pagoAnticipado: int" style="text;align=left;verticalAlign=top;spacingLeft=4;spacingRight=4;overflow=hidden;rotatable=0;points=[[0,0.5],[1,0.5]];portConstraint=eastwest;" parent="XEJke8gN8GgJqABwDWAg-2" vertex="1">
          <mxGeometry y="52" width="190" height="26" as="geometry" />
        </mxCell>
        <mxCell id="XEJke8gN8GgJqABwDWAg-9" value="" style="line;html=1;strokeWidth=1;align=left;verticalAlign=middle;spacingTop=-1;spacingLeft=3;spacingRight=3;rotatable=0;labelPosition=right;points=[];portConstraint=eastwest;" parent="XEJke8gN8GgJqABwDWAg-2" vertex="1">
          <mxGeometry y="78" width="190" height="28" as="geometry" />
        </mxCell>
        <mxCell id="XEJke8gN8GgJqABwDWAg-16" value="Seguro" style="swimlane;fontStyle=2;align=center;verticalAlign=top;childLayout=stackLayout;horizontal=1;startSize=26;horizontalStack=0;resizeParent=1;resizeLast=0;collapsible=1;marginBottom=0;rounded=0;shadow=0;strokeWidth=1;" parent="WIyWlLk6GJQsqaUBKTNV-1" vertex="1">
          <mxGeometry x="260" y="530" width="190" height="100" as="geometry">
            <mxRectangle x="230" y="140" width="160" height="26" as="alternateBounds" />
          </mxGeometry>
        </mxCell>
        <mxCell id="XEJke8gN8GgJqABwDWAg-17" value="-valor: int" style="text;align=left;verticalAlign=top;spacingLeft=4;spacingRight=4;overflow=hidden;rotatable=0;points=[[0,0.5],[1,0.5]];portConstraint=eastwest;" parent="XEJke8gN8GgJqABwDWAg-16" vertex="1">
          <mxGeometry y="26" width="190" height="26" as="geometry" />
        </mxCell>
        <mxCell id="XEJke8gN8GgJqABwDWAg-18" value="-TipoSeguro: String" style="text;align=left;verticalAlign=top;spacingLeft=4;spacingRight=4;overflow=hidden;rotatable=0;points=[[0,0.5],[1,0.5]];portConstraint=eastwest;rounded=0;shadow=0;html=0;" parent="XEJke8gN8GgJqABwDWAg-16" vertex="1">
          <mxGeometry y="52" width="190" height="26" as="geometry" />
        </mxCell>
        <mxCell id="XEJke8gN8GgJqABwDWAg-21" value="" style="line;html=1;strokeWidth=1;align=left;verticalAlign=middle;spacingTop=-1;spacingLeft=3;spacingRight=3;rotatable=0;labelPosition=right;points=[];portConstraint=eastwest;" parent="XEJke8gN8GgJqABwDWAg-16" vertex="1">
          <mxGeometry y="78" width="190" height="8" as="geometry" />
        </mxCell>
        <mxCell id="XEJke8gN8GgJqABwDWAg-24" value="Reserva" style="swimlane;fontStyle=2;align=center;verticalAlign=top;childLayout=stackLayout;horizontal=1;startSize=26;horizontalStack=0;resizeParent=1;resizeLast=0;collapsible=1;marginBottom=0;rounded=0;shadow=0;strokeWidth=1;" parent="WIyWlLk6GJQsqaUBKTNV-1" vertex="1">
          <mxGeometry x="-200" y="300" width="190" height="100" as="geometry">
            <mxRectangle x="230" y="140" width="160" height="26" as="alternateBounds" />
          </mxGeometry>
        </mxCell>
        <mxCell id="XEJke8gN8GgJqABwDWAg-27" value="-fechaHoraLlegada: Date" style="text;align=left;verticalAlign=top;spacingLeft=4;spacingRight=4;overflow=hidden;rotatable=0;points=[[0,0.5],[1,0.5]];portConstraint=eastwest;" parent="XEJke8gN8GgJqABwDWAg-24" vertex="1">
          <mxGeometry y="26" width="190" height="26" as="geometry" />
        </mxCell>
        <mxCell id="nKCrA-lN9NPPw2SbhEwQ-18" value="-fechaHoraEntrega: Date" style="text;align=left;verticalAlign=top;spacingLeft=4;spacingRight=4;overflow=hidden;rotatable=0;points=[[0,0.5],[1,0.5]];portConstraint=eastwest;" parent="XEJke8gN8GgJqABwDWAg-24" vertex="1">
          <mxGeometry y="52" width="190" height="26" as="geometry" />
        </mxCell>
        <mxCell id="XEJke8gN8GgJqABwDWAg-31" value="" style="line;html=1;strokeWidth=1;align=left;verticalAlign=middle;spacingTop=-1;spacingLeft=3;spacingRight=3;rotatable=0;labelPosition=right;points=[];portConstraint=eastwest;" parent="XEJke8gN8GgJqABwDWAg-24" vertex="1">
          <mxGeometry y="78" width="190" height="8" as="geometry" />
        </mxCell>
        <mxCell id="XEJke8gN8GgJqABwDWAg-68" value="Administrador" style="swimlane;fontStyle=2;align=center;verticalAlign=top;childLayout=stackLayout;horizontal=1;startSize=26;horizontalStack=0;resizeParent=1;resizeLast=0;collapsible=1;marginBottom=0;rounded=0;shadow=0;strokeWidth=1;" parent="WIyWlLk6GJQsqaUBKTNV-1" vertex="1">
          <mxGeometry x="-450" y="620" width="160" height="86" as="geometry">
            <mxRectangle x="230" y="140" width="160" height="26" as="alternateBounds" />
          </mxGeometry>
        </mxCell>
        <mxCell id="XEJke8gN8GgJqABwDWAg-69" value="-nombre: int" style="text;align=left;verticalAlign=top;spacingLeft=4;spacingRight=4;overflow=hidden;rotatable=0;points=[[0,0.5],[1,0.5]];portConstraint=eastwest;" parent="XEJke8gN8GgJqABwDWAg-68" vertex="1">
          <mxGeometry y="26" width="160" height="26" as="geometry" />
        </mxCell>
        <mxCell id="XEJke8gN8GgJqABwDWAg-70" value="-id: String" style="text;align=left;verticalAlign=top;spacingLeft=4;spacingRight=4;overflow=hidden;rotatable=0;points=[[0,0.5],[1,0.5]];portConstraint=eastwest;" parent="XEJke8gN8GgJqABwDWAg-68" vertex="1">
          <mxGeometry y="52" width="160" height="26" as="geometry" />
        </mxCell>
        <mxCell id="XEJke8gN8GgJqABwDWAg-71" value="" style="line;html=1;strokeWidth=1;align=left;verticalAlign=middle;spacingTop=-1;spacingLeft=3;spacingRight=3;rotatable=0;labelPosition=right;points=[];portConstraint=eastwest;" parent="XEJke8gN8GgJqABwDWAg-68" vertex="1">
          <mxGeometry y="78" width="160" height="8" as="geometry" />
        </mxCell>
        <mxCell id="XEJke8gN8GgJqABwDWAg-72" value="Empleado" style="swimlane;fontStyle=2;align=center;verticalAlign=top;childLayout=stackLayout;horizontal=1;startSize=26;horizontalStack=0;resizeParent=1;resizeLast=0;collapsible=1;marginBottom=0;rounded=0;shadow=0;strokeWidth=1;" parent="WIyWlLk6GJQsqaUBKTNV-1" vertex="1">
          <mxGeometry x="-400" y="730" width="160" height="112" as="geometry">
            <mxRectangle x="230" y="140" width="160" height="26" as="alternateBounds" />
          </mxGeometry>
        </mxCell>
        <mxCell id="7eufnPfeV6qqJb5Z0_9X-1" value="-nombre: int" style="text;align=left;verticalAlign=top;spacingLeft=4;spacingRight=4;overflow=hidden;rotatable=0;points=[[0,0.5],[1,0.5]];portConstraint=eastwest;" vertex="1" parent="XEJke8gN8GgJqABwDWAg-72">
          <mxGeometry y="26" width="160" height="26" as="geometry" />
        </mxCell>
        <mxCell id="XEJke8gN8GgJqABwDWAg-73" value="-nombre: int" style="text;align=left;verticalAlign=top;spacingLeft=4;spacingRight=4;overflow=hidden;rotatable=0;points=[[0,0.5],[1,0.5]];portConstraint=eastwest;" parent="XEJke8gN8GgJqABwDWAg-72" vertex="1">
          <mxGeometry y="52" width="160" height="26" as="geometry" />
        </mxCell>
        <mxCell id="XEJke8gN8GgJqABwDWAg-74" value="-id: String" style="text;align=left;verticalAlign=top;spacingLeft=4;spacingRight=4;overflow=hidden;rotatable=0;points=[[0,0.5],[1,0.5]];portConstraint=eastwest;" parent="XEJke8gN8GgJqABwDWAg-72" vertex="1">
          <mxGeometry y="78" width="160" height="26" as="geometry" />
        </mxCell>
        <mxCell id="XEJke8gN8GgJqABwDWAg-75" value="" style="line;html=1;strokeWidth=1;align=left;verticalAlign=middle;spacingTop=-1;spacingLeft=3;spacingRight=3;rotatable=0;labelPosition=right;points=[];portConstraint=eastwest;" parent="XEJke8gN8GgJqABwDWAg-72" vertex="1">
          <mxGeometry y="104" width="160" height="8" as="geometry" />
        </mxCell>
        <mxCell id="XEJke8gN8GgJqABwDWAg-90" value="tarifa" style="text;html=1;strokeColor=none;fillColor=none;align=center;verticalAlign=middle;whiteSpace=wrap;rounded=0;" parent="WIyWlLk6GJQsqaUBKTNV-1" vertex="1">
          <mxGeometry x="-760" y="370" width="60" height="30" as="geometry" />
        </mxCell>
        <mxCell id="nKCrA-lN9NPPw2SbhEwQ-2" value="" style="endArrow=block;endFill=1;html=1;edgeStyle=orthogonalEdgeStyle;align=left;verticalAlign=top;rounded=0;exitX=0;exitY=0.5;exitDx=0;exitDy=0;entryX=0.5;entryY=0;entryDx=0;entryDy=0;" parent="WIyWlLk6GJQsqaUBKTNV-1" source="jy5TOX9gL-A7DgwTzjGL-8" target="DRnetqcQ-tTifSEXMpZS-21" edge="1">
          <mxGeometry x="0.0323" y="17" relative="1" as="geometry">
            <mxPoint x="-470" y="420" as="sourcePoint" />
            <mxPoint x="-310" y="420" as="targetPoint" />
            <mxPoint x="5" y="-1" as="offset" />
          </mxGeometry>
        </mxCell>
        <mxCell id="nKCrA-lN9NPPw2SbhEwQ-3" value="1" style="edgeLabel;resizable=0;html=1;align=left;verticalAlign=bottom;" parent="nKCrA-lN9NPPw2SbhEwQ-2" connectable="0" vertex="1">
          <mxGeometry x="-1" relative="1" as="geometry">
            <mxPoint x="-120" y="21" as="offset" />
          </mxGeometry>
        </mxCell>
        <mxCell id="nKCrA-lN9NPPw2SbhEwQ-6" value="licencia" style="endArrow=block;endFill=1;html=1;edgeStyle=orthogonalEdgeStyle;align=left;verticalAlign=top;rounded=0;entryX=0.25;entryY=0;entryDx=0;entryDy=0;exitX=0.5;exitY=1;exitDx=0;exitDy=0;" parent="WIyWlLk6GJQsqaUBKTNV-1" source="XEJke8gN8GgJqABwDWAg-24" target="DRnetqcQ-tTifSEXMpZS-3" edge="1">
          <mxGeometry x="-0.9253" y="15" relative="1" as="geometry">
            <mxPoint x="-125" y="454.5000000000001" as="sourcePoint" />
            <mxPoint x="-300" y="735.5" as="targetPoint" />
            <Array as="points">
              <mxPoint x="-105" y="460" />
              <mxPoint x="-152" y="460" />
            </Array>
            <mxPoint y="1" as="offset" />
          </mxGeometry>
        </mxCell>
        <mxCell id="nKCrA-lN9NPPw2SbhEwQ-7" value="1, ..., *" style="edgeLabel;resizable=0;html=1;align=left;verticalAlign=bottom;" parent="nKCrA-lN9NPPw2SbhEwQ-6" connectable="0" vertex="1">
          <mxGeometry x="-1" relative="1" as="geometry">
            <mxPoint x="15" y="20" as="offset" />
          </mxGeometry>
        </mxCell>
        <mxCell id="nKCrA-lN9NPPw2SbhEwQ-10" value="cliente" style="endArrow=block;endFill=1;html=1;edgeStyle=orthogonalEdgeStyle;align=left;verticalAlign=top;rounded=0;exitX=1;exitY=0.5;exitDx=0;exitDy=0;entryX=0.5;entryY=0;entryDx=0;entryDy=0;" parent="WIyWlLk6GJQsqaUBKTNV-1" source="XEJke8gN8GgJqABwDWAg-27" target="jy5TOX9gL-A7DgwTzjGL-37" edge="1">
          <mxGeometry x="-1" relative="1" as="geometry">
            <mxPoint x="-10" y="294.9999999999999" as="sourcePoint" />
            <mxPoint x="170" y="300" as="targetPoint" />
          </mxGeometry>
        </mxCell>
        <mxCell id="nKCrA-lN9NPPw2SbhEwQ-11" value="1" style="edgeLabel;resizable=0;html=1;align=left;verticalAlign=bottom;" parent="nKCrA-lN9NPPw2SbhEwQ-10" connectable="0" vertex="1">
          <mxGeometry x="-1" relative="1" as="geometry" />
        </mxCell>
        <mxCell id="nKCrA-lN9NPPw2SbhEwQ-12" value="cliente" style="endArrow=block;endFill=1;html=1;edgeStyle=orthogonalEdgeStyle;align=left;verticalAlign=top;rounded=0;exitX=0;exitY=0.5;exitDx=0;exitDy=0;entryX=1;entryY=0.5;entryDx=0;entryDy=0;" parent="WIyWlLk6GJQsqaUBKTNV-1" target="jy5TOX9gL-A7DgwTzjGL-40" edge="1">
          <mxGeometry x="0.6104" y="-11" relative="1" as="geometry">
            <mxPoint x="330" y="361" as="sourcePoint" />
            <mxPoint x="470" y="550" as="targetPoint" />
            <mxPoint as="offset" />
          </mxGeometry>
        </mxCell>
        <mxCell id="nKCrA-lN9NPPw2SbhEwQ-13" value="1" style="edgeLabel;resizable=0;html=1;align=left;verticalAlign=bottom;" parent="nKCrA-lN9NPPw2SbhEwQ-12" connectable="0" vertex="1">
          <mxGeometry x="-1" relative="1" as="geometry">
            <mxPoint x="-40" y="53" as="offset" />
          </mxGeometry>
        </mxCell>
        <mxCell id="nKCrA-lN9NPPw2SbhEwQ-14" value="seguro" style="endArrow=block;endFill=1;html=1;edgeStyle=orthogonalEdgeStyle;align=left;verticalAlign=top;rounded=0;exitX=0.75;exitY=1;exitDx=0;exitDy=0;entryX=0.5;entryY=0;entryDx=0;entryDy=0;" parent="WIyWlLk6GJQsqaUBKTNV-1" source="XEJke8gN8GgJqABwDWAg-2" target="XEJke8gN8GgJqABwDWAg-16" edge="1">
          <mxGeometry x="-0.4322" relative="1" as="geometry">
            <mxPoint x="550" y="590" as="sourcePoint" />
            <mxPoint x="710" y="590" as="targetPoint" />
            <mxPoint as="offset" />
          </mxGeometry>
        </mxCell>
        <mxCell id="nKCrA-lN9NPPw2SbhEwQ-15" value="1" style="edgeLabel;resizable=0;html=1;align=left;verticalAlign=bottom;" parent="nKCrA-lN9NPPw2SbhEwQ-14" connectable="0" vertex="1">
          <mxGeometry x="-1" relative="1" as="geometry">
            <mxPoint y="23" as="offset" />
          </mxGeometry>
        </mxCell>
        <mxCell id="nKCrA-lN9NPPw2SbhEwQ-16" value="categoria" style="endArrow=block;endFill=1;html=1;edgeStyle=orthogonalEdgeStyle;align=left;verticalAlign=top;rounded=0;entryX=1;entryY=0.5;entryDx=0;entryDy=0;exitX=0;exitY=0.5;exitDx=0;exitDy=0;" parent="WIyWlLk6GJQsqaUBKTNV-1" source="XEJke8gN8GgJqABwDWAg-27" target="jy5TOX9gL-A7DgwTzjGL-8" edge="1">
          <mxGeometry x="-0.2857" y="-9" relative="1" as="geometry">
            <mxPoint x="-410" y="220" as="sourcePoint" />
            <mxPoint x="-250" y="220" as="targetPoint" />
            <mxPoint as="offset" />
          </mxGeometry>
        </mxCell>
        <mxCell id="nKCrA-lN9NPPw2SbhEwQ-17" value="1" style="edgeLabel;resizable=0;html=1;align=left;verticalAlign=bottom;" parent="nKCrA-lN9NPPw2SbhEwQ-16" connectable="0" vertex="1">
          <mxGeometry x="-1" relative="1" as="geometry">
            <mxPoint x="-65" y="1" as="offset" />
          </mxGeometry>
        </mxCell>
        <mxCell id="nKCrA-lN9NPPw2SbhEwQ-19" value="sede recoger" style="endArrow=block;endFill=1;html=1;edgeStyle=orthogonalEdgeStyle;align=left;verticalAlign=top;rounded=0;entryX=0.5;entryY=0;entryDx=0;entryDy=0;exitX=0;exitY=0.5;exitDx=0;exitDy=0;" parent="WIyWlLk6GJQsqaUBKTNV-1" source="nKCrA-lN9NPPw2SbhEwQ-18" target="jy5TOX9gL-A7DgwTzjGL-25" edge="1">
          <mxGeometry x="0.4446" y="-20" relative="1" as="geometry">
            <mxPoint x="-200" y="321" as="sourcePoint" />
            <mxPoint x="-220" y="390" as="targetPoint" />
            <Array as="points">
              <mxPoint x="-210" y="365" />
              <mxPoint x="-210" y="380" />
              <mxPoint x="-345" y="380" />
            </Array>
            <mxPoint as="offset" />
          </mxGeometry>
        </mxCell>
        <mxCell id="nKCrA-lN9NPPw2SbhEwQ-20" value="1" style="edgeLabel;resizable=0;html=1;align=left;verticalAlign=bottom;" parent="nKCrA-lN9NPPw2SbhEwQ-19" connectable="0" vertex="1">
          <mxGeometry x="-1" relative="1" as="geometry">
            <mxPoint x="-140" y="45" as="offset" />
          </mxGeometry>
        </mxCell>
        <mxCell id="nKCrA-lN9NPPw2SbhEwQ-21" value="sede a dejar" style="endArrow=block;endFill=1;html=1;edgeStyle=orthogonalEdgeStyle;align=left;verticalAlign=top;rounded=0;entryX=1;entryY=0.5;entryDx=0;entryDy=0;exitX=0.25;exitY=1;exitDx=0;exitDy=0;" parent="WIyWlLk6GJQsqaUBKTNV-1" source="XEJke8gN8GgJqABwDWAg-24" target="jy5TOX9gL-A7DgwTzjGL-27" edge="1">
          <mxGeometry x="-0.0671" relative="1" as="geometry">
            <mxPoint x="-250" y="410" as="sourcePoint" />
            <mxPoint x="-259.95" y="489" as="targetPoint" />
            <Array as="points">
              <mxPoint x="-153" y="420" />
              <mxPoint x="-230" y="420" />
              <mxPoint x="-230" y="475" />
            </Array>
            <mxPoint as="offset" />
          </mxGeometry>
        </mxCell>
        <mxCell id="nKCrA-lN9NPPw2SbhEwQ-22" value="1" style="edgeLabel;resizable=0;html=1;align=left;verticalAlign=bottom;" parent="nKCrA-lN9NPPw2SbhEwQ-21" connectable="0" vertex="1">
          <mxGeometry x="-1" relative="1" as="geometry">
            <mxPoint x="-67" y="52" as="offset" />
          </mxGeometry>
        </mxCell>
        <mxCell id="nKCrA-lN9NPPw2SbhEwQ-23" value="administrador&amp;nbsp;" style="endArrow=block;endFill=1;html=1;edgeStyle=orthogonalEdgeStyle;align=left;verticalAlign=top;rounded=0;exitX=0.75;exitY=1;exitDx=0;exitDy=0;entryX=0.905;entryY=-0.029;entryDx=0;entryDy=0;entryPerimeter=0;" parent="WIyWlLk6GJQsqaUBKTNV-1" source="jy5TOX9gL-A7DgwTzjGL-25" target="XEJke8gN8GgJqABwDWAg-68" edge="1">
          <mxGeometry x="0.4034" y="-75" relative="1" as="geometry">
            <mxPoint x="-320" y="580" as="sourcePoint" />
            <mxPoint x="-160" y="580" as="targetPoint" />
            <mxPoint x="2" as="offset" />
          </mxGeometry>
        </mxCell>
        <mxCell id="nKCrA-lN9NPPw2SbhEwQ-24" value="1" style="edgeLabel;resizable=0;html=1;align=left;verticalAlign=bottom;" parent="nKCrA-lN9NPPw2SbhEwQ-23" connectable="0" vertex="1">
          <mxGeometry x="-1" relative="1" as="geometry">
            <mxPoint x="-25" y="65" as="offset" />
          </mxGeometry>
        </mxCell>
        <mxCell id="nKCrA-lN9NPPw2SbhEwQ-25" value="empleados" style="endArrow=block;endFill=1;html=1;edgeStyle=orthogonalEdgeStyle;align=left;verticalAlign=top;rounded=0;exitX=1;exitY=1;exitDx=0;exitDy=0;entryX=0.951;entryY=-0.026;entryDx=0;entryDy=0;entryPerimeter=0;" parent="WIyWlLk6GJQsqaUBKTNV-1" source="jy5TOX9gL-A7DgwTzjGL-25" target="XEJke8gN8GgJqABwDWAg-72" edge="1">
          <mxGeometry x="-0.442" y="5" relative="1" as="geometry">
            <mxPoint x="-200" y="830" as="sourcePoint" />
            <mxPoint x="-40" y="830" as="targetPoint" />
            <mxPoint as="offset" />
          </mxGeometry>
        </mxCell>
        <mxCell id="nKCrA-lN9NPPw2SbhEwQ-26" value="*" style="edgeLabel;resizable=0;html=1;align=left;verticalAlign=bottom;" parent="nKCrA-lN9NPPw2SbhEwQ-25" connectable="0" vertex="1">
          <mxGeometry x="-1" relative="1" as="geometry">
            <mxPoint x="15" y="65" as="offset" />
          </mxGeometry>
        </mxCell>
        <mxCell id="nKCrA-lN9NPPw2SbhEwQ-27" value="reserva" style="endArrow=block;endFill=1;html=1;edgeStyle=orthogonalEdgeStyle;align=left;verticalAlign=top;rounded=0;entryX=1;entryY=0.25;entryDx=0;entryDy=0;exitX=-0.01;exitY=0.126;exitDx=0;exitDy=0;exitPerimeter=0;" parent="WIyWlLk6GJQsqaUBKTNV-1" target="XEJke8gN8GgJqABwDWAg-24" edge="1">
          <mxGeometry x="-0.6565" y="-5" relative="1" as="geometry">
            <mxPoint x="328.09999999999945" y="325.27599999999995" as="sourcePoint" />
            <mxPoint x="340" y="290" as="targetPoint" />
            <mxPoint as="offset" />
          </mxGeometry>
        </mxCell>
        <mxCell id="nKCrA-lN9NPPw2SbhEwQ-28" value="1" style="edgeLabel;resizable=0;html=1;align=left;verticalAlign=bottom;" parent="nKCrA-lN9NPPw2SbhEwQ-27" connectable="0" vertex="1">
          <mxGeometry x="-1" relative="1" as="geometry">
            <mxPoint x="-38" y="-3" as="offset" />
          </mxGeometry>
        </mxCell>
        <mxCell id="nKCrA-lN9NPPw2SbhEwQ-29" value="Empresa" style="swimlane;fontStyle=2;align=center;verticalAlign=top;childLayout=stackLayout;horizontal=1;startSize=26;horizontalStack=0;resizeParent=1;resizeLast=0;collapsible=1;marginBottom=0;rounded=0;shadow=0;strokeWidth=1;" parent="WIyWlLk6GJQsqaUBKTNV-1" vertex="1">
          <mxGeometry x="-220" y="60" width="300" height="154" as="geometry">
            <mxRectangle x="230" y="140" width="160" height="26" as="alternateBounds" />
          </mxGeometry>
        </mxCell>
        <mxCell id="nKCrA-lN9NPPw2SbhEwQ-45" value="-Empleados: Arraylist &lt;Empleado" style="text;align=left;verticalAlign=top;spacingLeft=4;spacingRight=4;overflow=hidden;rotatable=0;points=[[0,0.5],[1,0.5]];portConstraint=eastwest;" parent="nKCrA-lN9NPPw2SbhEwQ-29" vertex="1">
          <mxGeometry y="26" width="300" height="26" as="geometry" />
        </mxCell>
        <mxCell id="nKCrA-lN9NPPw2SbhEwQ-46" value="-Administradores: Arraylist &lt;Administrador&gt;" style="text;align=left;verticalAlign=top;spacingLeft=4;spacingRight=4;overflow=hidden;rotatable=0;points=[[0,0.5],[1,0.5]];portConstraint=eastwest;" parent="nKCrA-lN9NPPw2SbhEwQ-29" vertex="1">
          <mxGeometry y="52" width="300" height="26" as="geometry" />
        </mxCell>
        <mxCell id="nKCrA-lN9NPPw2SbhEwQ-47" value="-Seguros: Arraylist &lt;Seguro&gt;" style="text;align=left;verticalAlign=top;spacingLeft=4;spacingRight=4;overflow=hidden;rotatable=0;points=[[0,0.5],[1,0.5]];portConstraint=eastwest;" parent="nKCrA-lN9NPPw2SbhEwQ-29" vertex="1">
          <mxGeometry y="78" width="300" height="26" as="geometry" />
        </mxCell>
        <mxCell id="nKCrA-lN9NPPw2SbhEwQ-33" value="vehículos" style="endArrow=block;endFill=1;html=1;edgeStyle=orthogonalEdgeStyle;align=left;verticalAlign=top;rounded=0;exitX=0;exitY=0.5;exitDx=0;exitDy=0;entryX=0.091;entryY=-0.002;entryDx=0;entryDy=0;entryPerimeter=0;fillColor=#66B2FF;" parent="WIyWlLk6GJQsqaUBKTNV-1" source="nKCrA-lN9NPPw2SbhEwQ-29" target="jy5TOX9gL-A7DgwTzjGL-0" edge="1">
          <mxGeometry x="-0.5232" relative="1" as="geometry">
            <mxPoint x="-440" y="220" as="sourcePoint" />
            <mxPoint x="-280" y="220" as="targetPoint" />
            <Array as="points">
              <mxPoint x="-220" y="200" />
              <mxPoint x="-645" y="200" />
            </Array>
            <mxPoint as="offset" />
          </mxGeometry>
        </mxCell>
        <mxCell id="nKCrA-lN9NPPw2SbhEwQ-34" value="*" style="edgeLabel;resizable=0;html=1;align=left;verticalAlign=bottom;" parent="nKCrA-lN9NPPw2SbhEwQ-33" connectable="0" vertex="1">
          <mxGeometry x="-1" relative="1" as="geometry">
            <mxPoint x="-170" y="50" as="offset" />
          </mxGeometry>
        </mxCell>
        <mxCell id="nKCrA-lN9NPPw2SbhEwQ-35" value="sedes" style="endArrow=block;endFill=1;html=1;edgeStyle=orthogonalEdgeStyle;align=left;verticalAlign=top;rounded=0;exitX=0.5;exitY=1;exitDx=0;exitDy=0;entryX=0.25;entryY=0;entryDx=0;entryDy=0;" parent="WIyWlLk6GJQsqaUBKTNV-1" source="nKCrA-lN9NPPw2SbhEwQ-29" target="jy5TOX9gL-A7DgwTzjGL-25" edge="1">
          <mxGeometry x="-0.2667" y="-10" relative="1" as="geometry">
            <mxPoint x="-410" y="300" as="sourcePoint" />
            <mxPoint x="-250" y="300" as="targetPoint" />
            <Array as="points">
              <mxPoint x="-125" y="260" />
              <mxPoint x="-385" y="260" />
            </Array>
            <mxPoint as="offset" />
          </mxGeometry>
        </mxCell>
        <mxCell id="nKCrA-lN9NPPw2SbhEwQ-36" value="*" style="edgeLabel;resizable=0;html=1;align=left;verticalAlign=bottom;" parent="nKCrA-lN9NPPw2SbhEwQ-35" connectable="0" vertex="1">
          <mxGeometry x="-1" relative="1" as="geometry">
            <mxPoint x="-140" y="60" as="offset" />
          </mxGeometry>
        </mxCell>
        <mxCell id="nKCrA-lN9NPPw2SbhEwQ-37" value="categorias" style="endArrow=block;endFill=1;html=1;edgeStyle=orthogonalEdgeStyle;align=left;verticalAlign=top;rounded=0;exitX=0.25;exitY=1;exitDx=0;exitDy=0;entryX=0.5;entryY=0;entryDx=0;entryDy=0;" parent="WIyWlLk6GJQsqaUBKTNV-1" source="nKCrA-lN9NPPw2SbhEwQ-29" target="jy5TOX9gL-A7DgwTzjGL-7" edge="1">
          <mxGeometry x="0.5294" relative="1" as="geometry">
            <mxPoint x="-560" y="260" as="sourcePoint" />
            <mxPoint x="-400" y="260" as="targetPoint" />
            <Array as="points">
              <mxPoint x="-173" y="240" />
              <mxPoint x="-540" y="240" />
            </Array>
            <mxPoint as="offset" />
          </mxGeometry>
        </mxCell>
        <mxCell id="nKCrA-lN9NPPw2SbhEwQ-38" value="*" style="edgeLabel;resizable=0;html=1;align=left;verticalAlign=bottom;" parent="nKCrA-lN9NPPw2SbhEwQ-37" connectable="0" vertex="1">
          <mxGeometry x="-1" relative="1" as="geometry">
            <mxPoint x="-347" y="40" as="offset" />
          </mxGeometry>
        </mxCell>
        <mxCell id="nKCrA-lN9NPPw2SbhEwQ-39" value="reservas" style="endArrow=block;endFill=1;html=1;edgeStyle=orthogonalEdgeStyle;align=left;verticalAlign=top;rounded=0;exitX=0.75;exitY=1;exitDx=0;exitDy=0;entryX=0.75;entryY=0;entryDx=0;entryDy=0;" parent="WIyWlLk6GJQsqaUBKTNV-1" source="nKCrA-lN9NPPw2SbhEwQ-29" target="XEJke8gN8GgJqABwDWAg-24" edge="1">
          <mxGeometry x="-0.0626" y="-14" relative="1" as="geometry">
            <mxPoint x="-60" y="270" as="sourcePoint" />
            <mxPoint x="100" y="270" as="targetPoint" />
            <mxPoint as="offset" />
          </mxGeometry>
        </mxCell>
        <mxCell id="nKCrA-lN9NPPw2SbhEwQ-40" value="*" style="edgeLabel;resizable=0;html=1;align=left;verticalAlign=bottom;" parent="nKCrA-lN9NPPw2SbhEwQ-39" connectable="0" vertex="1">
          <mxGeometry x="-1" relative="1" as="geometry">
            <mxPoint x="-27" y="50" as="offset" />
          </mxGeometry>
        </mxCell>
        <mxCell id="nKCrA-lN9NPPw2SbhEwQ-41" value="clientes" style="endArrow=block;endFill=1;html=1;edgeStyle=orthogonalEdgeStyle;align=left;verticalAlign=top;rounded=0;exitX=1;exitY=0.75;exitDx=0;exitDy=0;entryX=0.75;entryY=0;entryDx=0;entryDy=0;" parent="WIyWlLk6GJQsqaUBKTNV-1" source="nKCrA-lN9NPPw2SbhEwQ-29" target="jy5TOX9gL-A7DgwTzjGL-37" edge="1">
          <mxGeometry x="-1" relative="1" as="geometry">
            <mxPoint x="40" y="230" as="sourcePoint" />
            <mxPoint x="200" y="230" as="targetPoint" />
          </mxGeometry>
        </mxCell>
        <mxCell id="nKCrA-lN9NPPw2SbhEwQ-42" value="*" style="edgeLabel;resizable=0;html=1;align=left;verticalAlign=bottom;" parent="nKCrA-lN9NPPw2SbhEwQ-41" connectable="0" vertex="1">
          <mxGeometry x="-1" relative="1" as="geometry" />
        </mxCell>
        <mxCell id="nKCrA-lN9NPPw2SbhEwQ-43" value="facturas" style="endArrow=block;endFill=1;html=1;edgeStyle=orthogonalEdgeStyle;align=left;verticalAlign=top;rounded=0;exitX=1;exitY=0.25;exitDx=0;exitDy=0;entryX=0.5;entryY=0;entryDx=0;entryDy=0;" parent="WIyWlLk6GJQsqaUBKTNV-1" source="nKCrA-lN9NPPw2SbhEwQ-29" target="XEJke8gN8GgJqABwDWAg-2" edge="1">
          <mxGeometry x="-1" relative="1" as="geometry">
            <mxPoint x="60" y="170" as="sourcePoint" />
            <mxPoint x="220" y="170" as="targetPoint" />
            <mxPoint as="offset" />
          </mxGeometry>
        </mxCell>
        <mxCell id="nKCrA-lN9NPPw2SbhEwQ-44" value="*" style="edgeLabel;resizable=0;html=1;align=left;verticalAlign=bottom;" parent="nKCrA-lN9NPPw2SbhEwQ-43" connectable="0" vertex="1">
          <mxGeometry x="-1" relative="1" as="geometry" />
        </mxCell>
        <mxCell id="7eufnPfeV6qqJb5Z0_9X-0" value="Al realizar la reserva se debe cobrar el 30% de la tarifa" style="shape=callout;whiteSpace=wrap;html=1;perimeter=calloutPerimeter;fillColor=#fff2cc;strokeColor=#d6b656;" vertex="1" parent="WIyWlLk6GJQsqaUBKTNV-1">
          <mxGeometry x="200" y="240" width="120" height="80" as="geometry" />
        </mxCell>
        <mxCell id="7eufnPfeV6qqJb5Z0_9X-2" value="Estados del vehículo: alquilado, disponible,limpieza, mantenimiento" style="shape=callout;whiteSpace=wrap;html=1;perimeter=calloutPerimeter;fillColor=#fff2cc;strokeColor=#d6b656;size=37;position=0.69;position2=1;base=30;" vertex="1" parent="WIyWlLk6GJQsqaUBKTNV-1">
          <mxGeometry x="-800" y="610" width="130" height="107" as="geometry" />
        </mxCell>
        <mxCell id="7eufnPfeV6qqJb5Z0_9X-3" value="El administrador ofrece los seguros una vez se formalice el alquiler" style="shape=callout;whiteSpace=wrap;html=1;perimeter=calloutPerimeter;fillColor=#fff2cc;strokeColor=#d6b656;position2=0;size=45;position=0.06;base=29;" vertex="1" parent="WIyWlLk6GJQsqaUBKTNV-1">
          <mxGeometry x="460" y="530" width="180" height="92.5" as="geometry" />
        </mxCell>
        <mxCell id="7eufnPfeV6qqJb5Z0_9X-4" value="La empresa por medio del administrador puede agregar vehiculos asi como ajustar tarifas" style="shape=callout;whiteSpace=wrap;html=1;perimeter=calloutPerimeter;fillColor=#fff2cc;strokeColor=#d6b656;" vertex="1" parent="WIyWlLk6GJQsqaUBKTNV-1">
          <mxGeometry x="-810" y="230" width="130" height="107" as="geometry" />
        </mxCell>
        <mxCell id="7eufnPfeV6qqJb5Z0_9X-5" value="Las tarifas se ajustan de acuerdo al tipo de categoria, asi como a la fecha y temporada esocogida&amp;nbsp;" style="shape=callout;whiteSpace=wrap;html=1;perimeter=calloutPerimeter;fillColor=#fff2cc;strokeColor=#d6b656;position2=0.85;" vertex="1" parent="WIyWlLk6GJQsqaUBKTNV-1">
          <mxGeometry x="-950" y="380" width="130" height="108.5" as="geometry" />
        </mxCell>
        <mxCell id="7eufnPfeV6qqJb5Z0_9X-8" value="Los empleados pueden hacer la reserva y agregar clientes" style="shape=callout;whiteSpace=wrap;html=1;perimeter=calloutPerimeter;fillColor=#fff2cc;strokeColor=#d6b656;position2=0;size=30;position=0.08;" vertex="1" parent="WIyWlLk6GJQsqaUBKTNV-1">
          <mxGeometry x="45" y="230" width="120" height="80" as="geometry" />
        </mxCell>
        <mxCell id="7eufnPfeV6qqJb5Z0_9X-11" value="La reserva se hace escogiendo la categoria del vehiculo" style="shape=callout;whiteSpace=wrap;html=1;perimeter=calloutPerimeter;fillColor=#fff2cc;strokeColor=#d6b656;" vertex="1" parent="WIyWlLk6GJQsqaUBKTNV-1">
          <mxGeometry x="-630" y="210" width="80" height="110" as="geometry" />
        </mxCell>
        <mxCell id="7eufnPfeV6qqJb5Z0_9X-13" value="Al recoger el vehiculo la empresa realiza el bloqueo de la tarjeta&amp;nbsp;" style="shape=callout;whiteSpace=wrap;html=1;perimeter=calloutPerimeter;fillColor=#fff2cc;strokeColor=#d6b656;position2=0.64;size=43;position=0.36;base=30;" vertex="1" parent="WIyWlLk6GJQsqaUBKTNV-1">
          <mxGeometry x="-90" y="500" width="110" height="102.5" as="geometry" />
        </mxCell>
        <mxCell id="7eufnPfeV6qqJb5Z0_9X-14" value="La empresa guarda los datos de la factura" style="shape=callout;whiteSpace=wrap;html=1;perimeter=calloutPerimeter;fillColor=#fff2cc;strokeColor=#d6b656;" vertex="1" parent="WIyWlLk6GJQsqaUBKTNV-1">
          <mxGeometry x="380" y="20" width="120" height="80" as="geometry" />
        </mxCell>
      </root>
    </mxGraphModel>
  </diagram>
</mxfile>
